<?xml version="1.0" encoding="UTF-8" standalone="no"?>
<!-- Created with Inkscape (http://www.inkscape.org/) by Deni Symonds in 2007 symode09@hotmail.com -->
<svg
   xmlns:dc="http://purl.org/dc/elements/1.1/"
   xmlns:cc="http://web.resource.org/cc/"
   xmlns:rdf="http://www.w3.org/1999/02/22-rdf-syntax-ns#"
   xmlns:svg="http://www.w3.org/2000/svg"
   xmlns="http://www.w3.org/2000/svg"
   xmlns:sodipodi="http://sodipodi.sourceforge.net/DTD/sodipodi-0.dtd"
   xmlns:inkscape="http://www.inkscape.org/namespaces/inkscape"
   width="522.48999"
   height="464.26999"
   id="svg2"
   sodipodi:version="0.32"
   inkscape:version="0.45.1"
   version="1.0"
   sodipodi:docbase="C:\Users\symode09\Desktop"
   sodipodi:docname="drawing.svg"
   inkscape:output_extension="org.inkscape.output.svg.inkscape">
  <defs
     id="defs4" />
  <sodipodi:namedview
     id="base"
     pagecolor="#ffffff"
     bordercolor="#666666"
     borderopacity="1.0"
     gridtolerance="10000"
     guidetolerance="10"
     objecttolerance="10"
     inkscape:pageopacity="0.0"
     inkscape:pageshadow="2"
     inkscape:zoom="0.7"
     inkscape:cx="375.29084"
     inkscape:cy="228.72115"
     inkscape:document-units="px"
     inkscape:current-layer="layer1"
     width="522.49px"
     height="464.27px"
     inkscape:window-width="765"
     inkscape:window-height="575"
     inkscape:window-x="23"
     inkscape:window-y="23" />
  <metadata
     id="metadata7">
    <rdf:RDF>
      <cc:Work
         rdf:about="">
        <dc:format>image/svg+xml</dc:format>
        <dc:type
           rdf:resource="http://purl.org/dc/dcmitype/StillImage" />
      </cc:Work>
    </rdf:RDF>
  </metadata>
  <g
     inkscape:label="Layer 1"
     inkscape:groupmode="layer"
     id="layer1">
    <path
       style="fill:#990000;fill-opacity:1"
       d="M 177.51567,451.2002 C 175.20573,446.6198 172.26147,430.3163 170.71391,413.5363 C 169.19755,397.09471 168.65329,382.89512 168.30449,350.67353 C 168.00963,323.43632 167.51407,303.38289 167.12579,302.97588 C 167.04705,302.8934 165.41209,302.73464 163.49251,302.62293 C 161.57293,302.51122 158.83237,302.33144 157.40237,302.22333 C 155.97237,302.11522 153.54237,301.93805 152.00237,301.82954 C 147.68627,301.52523 135.51797,300.64195 132.50237,300.41392 C 129.52083,300.1885 93.968814,297.31963 89.202374,296.91983 C 87.552374,296.78129 81.387374,296.20352 75.502374,295.63555 C 69.617374,295.06758 63.812374,294.51543 62.602374,294.40852 C 56.991774,293.91243 48.627554,293.04997 48.293954,292.93305 C 48.133594,292.87679 47.012374,292.73545 45.802374,292.61894 C 42.787074,292.32845 37.813914,291.70442 35.402374,291.31363 C 34.302374,291.13545 32.502374,290.86398 31.402374,290.71043 C 25.896354,289.94206 22.275334,289.10483 21.227534,288.35788 L 20.643854,287.94186 L 21.079354,287.58891 C 21.856754,286.95868 24.344014,286.60433 31.502374,286.10343 C 46.156654,285.0782 82.228754,284.76169 124.80237,285.28481 C 139.54237,285.46599 151.87237,285.65398 152.20237,285.70223 C 152.53237,285.75067 155.86237,285.81154 159.60237,285.83756 L 166.40237,285.88461 L 166.34385,284.29502 C 166.23593,281.36389 164.51967,249.09866 163.21367,225.44843 C 162.50227,212.56556 161.68371,197.34035 161.39467,191.61463 C 161.10563,185.88891 160.83931,181.10413 160.80283,180.98201 C 160.75463,180.82065 150.94781,180.75498 124.86945,180.74157 C 82.899034,180.72015 80.069874,180.68632 54.302374,179.89873 C 44.488954,179.59883 36.343134,179.09352 31.502374,178.48472 C 24.921894,177.65709 22.530334,177.03967 21.320814,175.85589 C 20.493114,175.04588 20.552754,174.47571 21.653354,172.67571 C 23.167054,170.20024 23.171994,169.50194 21.693894,166.94639 C 21.250434,166.17962 20.834134,165.22247 20.768794,164.81946 C 20.660494,164.1516 20.727414,164.01046 21.526194,163.22247 C 22.949294,161.81887 26.133614,160.91056 32.593734,160.06552 C 35.570054,159.67613 36.602554,159.58283 44.402374,158.99785 C 56.470834,158.09254 79.967054,157.48994 109.89591,157.31757 L 133.78943,157.18023 L 125.22647,149.87293 C 120.51683,145.85392 116.57183,142.532 116.45981,142.49116 C 116.34777,142.45012 116.19903,142.50157 116.12925,142.60527 C 115.87715,142.98024 112.08995,145.23009 109.87121,146.32298 C 104.74339,148.84871 97.321554,150.87513 89.202374,151.96642 C 83.888394,152.68074 74.037734,152.8461 70.802374,152.27553 C 68.470094,151.86412 65.059054,150.93259 63.772154,150.35562 C 63.425534,150.20026 63.080994,150.07313 63.006534,150.07313 C 62.932074,150.07313 61.865674,149.56823 60.636754,148.95101 C 50.059394,143.6397 43.093434,132.77985 41.399294,118.96005 C 41.030794,115.95385 40.980754,109.52162 41.302614,106.52963 C 42.186854,98.30922 44.646434,90.40192 48.515454,83.34127 C 49.290394,81.92705 49.896974,80.69202 49.863414,80.59692 C 49.829834,80.50163 47.995014,78.54988 45.786014,76.25939 C 43.576994,73.9691 41.281994,71.54608 40.686014,70.87521 C 40.090014,70.20414 38.654094,68.62757 37.495094,67.37171 C 36.336094,66.11566 34.761094,64.36851 33.995094,63.48903 C 33.229094,62.60975 32.512374,61.78893 32.402374,61.66521 C 26.067034,54.54029 18.652894,44.58995 14.665674,37.86103 C 12.399494,34.03661 11.949774,33.21939 10.322554,29.96895 C 6.5582139,22.44943 4.2857138,15.01421 4.2857138,10.21721 C 4.2857138,6.6178201 5.0001338,6.0444501 7.7261139,7.4566604 C 9.5675939,8.4106104 10.646994,8.5391404 11.537354,7.9107104 C 11.903114,7.6526504 12.380974,7.2136104 12.599234,6.9355401 C 12.817514,6.6572601 13.392314,6.0016001 13.876594,5.4786801 C 14.662274,4.6300301 14.849134,4.5277301 15.611554,4.5277301 C 16.370554,4.5277301 16.587734,4.6450501 17.556014,5.5787801 C 18.276934,6.2738701 19.208014,7.5787804 20.305614,9.4326305 C 24.420114,16.38137 27.374894,20.89788 30.866354,25.57536 C 34.670874,30.67205 35.922694,32.21599 42.176374,39.52529 C 45.473474,43.37894 58.688694,57.04379 63.552554,61.62897 C 66.095874,64.02637 66.104074,64.03198 66.601954,63.70545 C 67.575134,63.06721 70.924074,61.38473 72.650934,60.66681 C 75.516154,59.47522 78.354394,58.63218 81.002374,58.18594 C 81.552374,58.09324 82.452374,57.90986 83.002374,57.77833 C 84.551214,57.40816 92.345214,57.46702 94.802374,57.86762 C 100.47465,58.79194 106.15215,60.96952 108.98239,63.30645 C 110.45761,64.52447 110.95335,65.31205 110.93815,66.41375 C 110.92519,67.35329 110.71607,67.7585 109.40083,69.39253 C 107.97613,71.1623 107.77157,71.62716 107.40899,73.91745 C 107.22165,75.10063 106.89449,76.29102 106.59681,76.8722 L 106.09833,77.84558 L 107.65505,79.4748 C 114.20757,86.33265 119.26635,93.39771 122.72635,100.52363 C 125.92221,107.10521 127.90237,114.45535 127.90237,119.73602 L 127.90237,121.2103 L 132.75237,125.36965 C 135.41987,127.65734 137.64737,129.58166 137.70237,129.64592 C 137.80571,129.76664 141.61669,133.06454 142.50237,133.79987 C 142.77737,134.0281 146.64151,137.37585 151.08935,141.23951 C 155.53717,145.10297 159.20647,148.2337 159.24333,148.19686 C 159.28019,148.16002 159.21919,146.06713 159.10777,143.54581 C 158.99637,141.02469 158.72633,133.91699 158.50769,127.75083 C 156.89505,82.26979 156.89569,58.60856 158.50985,49.05261 C 159.36053,44.01658 160.51817,42.77934 163.23579,44.00136 C 164.83479,44.72028 165.57259,44.96192 166.17917,44.96513 C 166.94313,44.96893 168.28041,44.57574 168.90237,44.16413 C 169.71277,43.62779 171.05839,43.16633 171.81169,43.16633 C 172.92923,43.16633 174.08325,44.46523 174.84601,46.58174 C 178.53335,56.81356 180.85101,87.31123 183.15199,155.87893 L 183.20237,157.38043 L 215.30237,157.81747 C 255.45039,158.36442 282.16833,158.80065 292.00237,159.07012 C 310.42849,159.57483 320.15721,159.71757 320.30061,159.48534 C 320.37841,159.35921 320.50291,157.88814 320.57741,156.21627 C 321.31121,139.7366 324.30481,97.76788 326.10651,78.70183 C 327.44091,64.58032 328.88031,56.08203 330.01121,55.6476 C 330.50481,55.45801 330.87961,55.95851 331.28891,57.3537 C 333.01461,63.23638 334.38851,80.39853 335.39381,108.63173 C 335.89891,122.8165 336.49961,148.40367 336.50141,155.81247 C 336.50191,157.92297 336.55701,159.79244 336.62381,159.96662 C 336.72891,160.24089 337.29691,160.28393 340.87381,160.28894 C 343.14451,160.29214 349.32241,160.42748 354.60241,160.58984 C 359.88241,160.752 367.71241,160.97442 372.00241,161.08393 C 376.29241,161.19324 385.38241,161.46772 392.20241,161.69354 C 416.31361,162.49214 424.22081,162.63909 424.00181,162.28433 C 423.93341,162.17362 423.32061,161.70495 422.64001,161.24289 C 421.95931,160.78083 421.31241,160.32738 421.20241,160.23488 C 421.09241,160.14259 420.13841,159.41747 419.08241,158.62367 C 416.47321,156.66192 413.82401,154.62488 413.70241,154.48694 C 413.64741,154.42468 412.25241,153.30136 410.60241,151.99105 C 408.95241,150.68074 407.45591,149.46533 407.27691,149.29015 C 407.09791,149.11518 406.78291,148.83209 406.57691,148.66112 C 406.37091,148.49015 404.40241,146.79165 402.20241,144.88635 C 400.00241,142.98125 398.09521,141.37925 397.96431,141.32659 C 397.83341,141.27374 395.85341,142.28195 393.56431,143.56703 C 389.14701,146.04671 379.92001,150.67373 379.39221,150.67373 C 379.32911,150.67373 378.81071,150.89175 378.24001,151.15842 C 377.66931,151.42508 376.43741,151.92719 375.50241,152.27413 C 374.56741,152.62108 373.62241,152.98264 373.40241,153.07753 C 373.18241,153.17263 372.14741,153.51797 371.10241,153.8453 C 361.78621,156.76302 353.09961,157.01907 350.65241,154.4483 C 350.34991,154.13059 350.10241,153.7438 350.10241,153.58885 C 350.10241,152.85451 351.87981,151.45311 354.89661,149.80847 C 359.82041,147.12438 369.13491,140.74561 375.15241,135.93661 C 375.89491,135.34342 377.15491,134.34001 377.95241,133.70718 C 378.74991,133.07435 379.44741,132.50538 379.50241,132.44292 C 379.55741,132.38046 380.70821,131.44452 382.05991,130.36284 C 383.41151,129.28136 384.49151,128.32881 384.45991,128.24613 C 384.42821,128.16344 382.92581,126.53161 381.12121,124.6199 C 379.31651,122.70819 376.83301,119.97306 375.60221,118.54163 C 373.02521,115.54444 367.34581,108.42853 365.64151,106.06156 C 364.16601,104.01212 359.50111,97.01733 359.34481,96.61973 C 359.27981,96.45457 358.94311,95.86898 358.59661,95.31843 C 358.25001,94.76788 357.28361,93.01113 356.44911,91.41453 C 351.04601,81.0778 348.95021,71.5671 351.47551,68.84458 C 352.25371,68.00595 352.91581,67.79273 355.70681,67.48262 C 357.62831,67.26921 358.58671,67.05439 359.71711,66.58372 C 364.59191,64.5545 365.85921,64.68243 368.60241,67.48102 C 370.31681,69.22997 371.23241,70.60534 376.40461,79.20233 C 381.20421,87.1795 385.11401,93.13865 390.26231,100.32343 C 392.07701,102.85596 393.84841,105.33344 394.19871,105.82893 C 394.71621,106.56066 400.41881,114.19269 400.59931,114.39489 C 400.65001,114.45174 405.81501,109.99189 406.20241,109.55705 C 406.31241,109.43333 407.03241,108.79229 407.80241,108.13203 C 408.57241,107.47177 409.29241,106.83293 409.40241,106.71221 C 409.51241,106.59149 411.17741,105.15466 413.10241,103.51962 C 415.02741,101.88439 416.73741,100.40631 416.90241,100.23474 C 417.06741,100.06317 417.74241,99.47438 418.40241,98.92643 C 419.06241,98.37829 419.64741,97.87639 419.70241,97.81112 C 419.85691,97.62754 426.49411,92.14506 429.40241,89.79892 C 439.43131,81.70763 447.26421,76.64758 452.14791,75.10484 C 453.57361,74.65439 454.16901,74.5673 455.39841,74.62956 C 456.80971,74.70083 456.94751,74.74968 457.60911,75.41194 C 458.08001,75.88321 458.61111,76.83597 459.20541,78.2754 C 460.15681,80.58011 460.34011,80.88421 462.17751,83.20633 C 463.81451,85.275 464.16361,86.12485 464.06841,87.81053 C 463.94531,89.99091 462.68501,91.81413 458.37491,96.04656 C 457.07001,97.32804 454.96741,99.26137 453.70241,100.34285 C 452.43741,101.42433 451.35741,102.36607 451.30241,102.43554 C 451.24741,102.50481 450.03241,103.4974 448.60241,104.64094 C 447.17241,105.78449 445.82241,106.87197 445.60241,107.05736 C 444.98181,107.58028 441.12711,110.63653 439.90151,111.57747 C 439.29701,112.04154 438.53241,112.66196 438.20241,112.95625 C 437.87241,113.25054 436.74741,114.12702 435.70241,114.904 C 434.65741,115.68077 433.75741,116.37447 433.70241,116.44514 C 433.64741,116.51581 432.43241,117.44013 431.00241,118.49899 C 429.57241,119.55805 428.31241,120.49979 428.20241,120.59208 C 427.90201,120.84413 423.87431,123.77886 421.60241,125.40128 C 420.50241,126.18687 419.50461,126.91399 419.38521,127.0171 C 419.26571,127.1202 417.96071,128.03051 416.48521,129.03972 C 415.00961,130.04913 413.77481,130.95283 413.74121,131.04812 C 413.67671,131.23071 414.07201,131.77365 416.51581,134.85793 C 417.34461,135.90398 418.87791,137.88596 419.92311,139.26233 C 420.96831,140.63871 422.54491,142.71078 423.42671,143.86693 C 428.28171,150.23249 433.16801,157.27793 435.24781,160.91136 L 436.20621,162.58563 L 445.70431,162.72717 C 450.92821,162.80485 457.72241,162.96822 460.80241,163.08974 C 466.65191,163.32077 478.51971,164.13658 481.10241,164.48513 C 481.92741,164.59644 483.54741,164.77882 484.70241,164.89034 C 488.08951,165.21746 497.33531,166.79163 500.50241,167.58042 C 502.91061,168.18022 507.60521,169.55339 508.45241,169.90575 C 508.69991,170.00885 509.10491,170.17481 509.35241,170.27471 C 512.50271,171.54638 514.70241,172.83027 514.70241,173.39723 C 514.70241,173.54438 514.42141,173.72656 514.07811,173.80204 C 513.32031,173.9686 509.00841,173.77161 504.40241,173.3596 C 502.11291,173.15499 497.40611,173.02186 489.99241,172.95239 C 476.62321,172.82706 469.69661,173.08492 447.80241,174.52416 C 439.44241,175.07351 431.20741,175.60524 429.50241,175.70554 C 427.79741,175.80584 425.23241,175.98722 423.80241,176.10874 C 417.26821,176.6641 391.65191,177.48071 352.10241,178.39423 C 344.01741,178.58101 337.28221,178.7718 337.13531,178.81805 C 336.91841,178.88652 336.89101,179.73717 336.98921,183.35658 C 337.05571,185.80643 337.20051,192.31533 337.31111,197.82083 C 337.83661,223.98697 338.65671,249.42398 339.60581,268.99193 C 340.05551,278.264 340.71511,290.08521 340.79681,290.33666 C 340.84581,290.48761 342.29141,290.59932 345.23591,290.6796 C 354.50871,290.93245 398.73451,292.56588 400.10241,292.70582 C 400.70741,292.76789 404.17241,292.90542 407.80241,293.01173 C 411.43241,293.11803 416.33741,293.30062 418.70241,293.41733 C 425.48281,293.75187 440.40221,294.43855 444.90241,294.62334 C 447.15741,294.71583 450.48741,294.8874 452.30241,295.00452 C 454.11741,295.12184 457.44741,295.30982 459.70241,295.42214 C 461.95741,295.53465 465.01741,295.71383 466.50241,295.82033 C 467.98741,295.92664 470.77741,296.11383 472.70241,296.23595 C 483.55611,296.92524 489.52841,297.3853 495.90241,298.02334 C 506.13261,299.04716 510.80431,299.65336 512.80241,300.21633 C 513.13241,300.30922 513.76241,300.44315 514.20241,300.51402 C 514.64241,300.58489 515.71681,300.87679 516.59001,301.16267 C 520.30581,302.37929 520.66011,303.17588 518.80241,306.13784 C 517.40011,308.37368 517.38341,308.8035 518.60241,311.27738 C 519.65171,313.4069 519.73901,314.25375 518.99621,315.09879 C 516.03981,318.46275 495.94681,319.35445 450.60241,318.13403 C 433.91531,317.68478 421.05221,317.25675 415.10241,316.95265 C 413.94741,316.89359 410.34741,316.75104 407.10241,316.63573 C 403.85741,316.52061 399.76241,316.33703 398.00241,316.22812 C 396.24241,316.11921 392.37241,315.94124 389.40241,315.83253 C 382.66671,315.58628 367.95901,314.92222 363.30241,314.65395 C 361.37741,314.54304 357.59741,314.35765 354.90241,314.24174 C 352.20741,314.12582 349.05741,313.98168 347.90241,313.92142 L 345.80241,313.81191 L 346.30241,314.23913 C 346.57741,314.47417 347.25241,315.09419 347.80241,315.61711 C 348.35241,316.14003 354.10211,321.33602 360.57951,327.16405 C 367.05691,332.99207 372.55651,337.94081 372.80091,338.16103 C 375.07941,340.21448 378.88711,343.65672 380.26261,344.90657 L 381.95811,346.44711 L 383.20151,345.39106 C 386.56781,342.5324 391.47231,339.63651 395.60241,338.06894 C 396.26241,337.81829 396.95681,337.53501 397.14561,337.43931 C 397.33441,337.34342 397.82941,337.17965 398.24561,337.07535 C 398.66181,336.97084 399.81241,336.66354 400.80241,336.39227 C 401.79241,336.1212 403.86241,335.70037 405.40241,335.45713 C 407.88081,335.06574 408.73071,335.0263 412.80241,335.11239 C 416.86771,335.19847 417.77431,335.28156 420.60241,335.8271 C 424.04181,336.49056 424.64771,336.64091 426.80241,337.36624 C 430.16291,338.49737 433.61341,340.14201 435.28271,341.40828 C 437.25101,342.90137 437.90241,343.76243 437.90241,344.87094 C 437.90241,345.70397 437.65801,346.1326 436.30661,347.67053 C 435.67761,348.38625 435.01371,349.26132 434.83121,349.61528 C 434.38121,350.48815 433.98061,354.33659 434.32781,354.45231 C 434.46511,354.49815 436.11301,355.31937 437.98991,356.27733 C 440.86541,357.745 442.65021,358.7496 445.20021,360.33579 C 447.09501,361.51456 452.88121,366.10295 454.86001,367.99624 C 458.58861,371.5634 460.70191,374.34298 462.90971,378.58462 C 469.19821,390.66548 467.89821,403.7039 459.26151,415.1762 C 458.62401,416.023 458.10241,416.7936 458.10241,416.8887 C 458.10241,416.9836 459.69731,418.588 461.64671,420.454 C 468.96181,427.4558 479.17011,437.8816 481.90241,441.1413 C 483.91991,443.5483 484.38151,444.7357 483.16281,444.3833 C 481.99501,444.0456 476.08861,440.3759 474.20241,438.816 C 474.09241,438.7249 473.68741,438.4352 473.30241,438.1719 C 472.91741,437.9087 471.97241,437.227 471.20241,436.657 C 470.43241,436.0871 468.90241,434.9553 467.80241,434.1421 C 466.70241,433.3289 462.89411,430.427 459.33961,427.6933 C 455.78511,424.9597 452.77011,422.6827 452.63961,422.6334 C 452.50911,422.584 452.08741,422.8196 451.70241,423.1567 C 450.81221,423.9365 447.79291,426.2128 446.10241,427.3788 C 440.54861,431.2088 431.79841,435.1167 422.70241,437.8294 C 413.63681,440.5329 401.12181,442.3593 391.30241,442.4118 C 387.73131,442.4308 386.49861,442.3661 385.33081,442.0983 C 378.77241,440.5944 373.84931,437.3247 369.60541,431.6544 C 365.30841,425.9129 362.95531,419.8474 361.52831,410.8336 C 360.82451,406.3878 360.64271,403.233 360.76211,397.53234 C 360.91171,390.38561 361.53361,385.78701 363.31231,378.67491 C 364.95531,372.10594 368.39211,363.86771 371.52791,358.98183 L 372.29881,357.78063 L 371.45061,356.99665 C 370.98411,356.56562 369.74741,355.53239 368.70241,354.70056 C 367.65741,353.86893 366.48741,352.90196 366.10241,352.55161 C 365.71741,352.20146 364.90741,351.52739 364.30241,351.05351 C 363.69741,350.57984 363.10251,350.09776 362.98051,349.98244 C 362.27471,349.31498 344.21901,334.47295 344.17281,334.5224 C 344.12871,334.56924 344.55951,338.94622 345.40771,347.06993 C 347.25641,364.77562 349.32551,379.92956 353.62171,407.23 C 357.21621,430.0714 357.36201,431.2034 357.38491,436.4592 C 357.40141,440.2494 357.37831,440.5083 356.95101,441.3087 C 356.41551,442.3119 355.73561,442.5641 354.21521,442.3239 C 351.54081,441.9011 350.61091,441.9009 349.79161,442.3235 C 349.35751,442.5475 348.82241,442.8989 348.60241,443.1043 C 347.78781,443.8654 346.38361,444.7379 345.77311,444.8622 C 344.98321,445.023 343.81911,444.5573 343.15561,443.815 C 338.56011,438.6732 332.59971,418.5449 327.81661,392.01483 C 324.01341,370.92016 320.95001,344.48675 319.38291,319.24213 L 319.04111,313.73663 L 318.45541,313.10961 C 318.02011,312.64354 317.62981,312.45075 316.93601,312.35906 C 315.87841,312.21912 301.41177,311.34925 294.90237,311.03393 C 289.78997,310.78649 278.33483,310.13443 273.70237,309.82713 C 271.88737,309.70681 260.09737,308.97107 247.50237,308.19249 C 220.71989,306.53644 219.70567,306.47158 198.30761,305.04615 C 191.54549,304.5957 185.99747,304.22713 185.97867,304.22713 C 185.94341,304.22713 185.89829,305.26197 185.39399,317.64053 C 185.02305,326.74563 184.35187,339.50478 183.20349,359.28213 C 181.10285,395.45827 180.71115,404.7243 180.19911,430.3531 C 180.03521,438.5563 179.80853,446.3942 179.69539,447.7705 C 179.31043,452.453 178.66199,453.4734 177.51567,451.2002 z M 407.00241,420.2516 C 411.44791,419.7732 412.49981,419.6132 416.80241,418.7599 C 419.04721,418.3149 421.94641,417.6246 422.70241,417.3553 C 422.97741,417.2572 424.01241,416.9367 425.00241,416.643 C 425.99241,416.3493 426.98241,416.0276 427.20241,415.9283 C 427.42241,415.8288 428.05241,415.6014 428.60241,415.4226 C 431.18491,414.5836 437.80241,411.3816 437.80241,410.9714 C 437.80241,410.8631 435.37241,408.8555 432.40241,406.5097 C 427.81141,402.8837 426.18441,401.5768 423.00241,398.95877 C 422.43201,398.4895 417.53401,394.5806 416.72251,393.94696 C 416.34851,393.65507 415.89851,393.27469 415.72251,393.10172 C 415.54641,392.92875 414.05241,391.71553 412.40241,390.40563 C 410.75241,389.09572 409.35741,387.97119 409.30241,387.90673 C 409.24741,387.84226 408.30241,387.0775 407.20241,386.20743 C 406.10241,385.33716 404.97741,384.41464 404.70241,384.15738 C 404.42741,383.89993 403.70741,383.31374 403.10241,382.85468 C 402.49741,382.39562 401.46241,381.56459 400.80241,381.00804 C 400.14241,380.45128 399.15241,379.63727 398.60241,379.19883 C 398.05241,378.76039 397.42241,378.24968 397.20241,378.0639 C 395.87781,376.94478 390.84941,372.89573 390.78441,372.89573 C 390.74151,372.89573 390.30051,373.70474 389.80431,374.69353 C 386.91271,380.45689 385.02111,387.11794 384.06111,394.91773 C 383.68921,397.93935 383.74981,405.0507 384.17281,408.0308 C 384.80861,412.5097 385.72221,415.5211 387.24011,418.1411 C 387.94161,419.3519 389.17851,420.6438 389.80241,420.8172 C 390.02241,420.8783 392.94741,420.8875 396.30241,420.8374 C 400.90361,420.7688 403.53261,420.6248 407.00241,420.2516 z M 446.50921,403.9768 C 449.44091,400.6611 451.18871,396.75557 451.59581,392.61063 C 451.85191,390.00222 451.08551,386.20603 449.66381,383.04187 C 448.84211,381.21324 447.12651,378.3676 446.12661,377.17541 C 445.83831,376.83146 445.24311,376.11074 444.80411,375.57381 C 442.82341,373.15099 438.64941,369.12657 435.32451,366.43388 C 433.72301,365.13678 426.94601,360.4497 424.70241,359.08734 C 423.21741,358.18564 421.75851,357.27493 421.46051,357.06372 C 420.98491,356.72658 420.55521,356.67953 417.95291,356.67953 C 411.70891,356.67953 406.80931,357.83108 402.38111,360.33939 C 400.83851,361.21326 399.37641,362.28093 399.50241,362.44149 C 399.55741,362.51176 403.42741,366.08393 408.10241,370.37962 C 412.77741,374.67551 420.05841,381.39082 424.28241,385.30273 C 428.50651,389.21464 432.55651,392.95397 433.28241,393.61243 C 434.00841,394.27089 435.59241,395.75877 436.80241,396.91893 C 441.16851,401.1049 445.32341,404.9125 445.53541,404.9217 C 445.60851,404.9249 446.04671,404.4997 446.50921,403.9768 z M 289.19237,288.65057 C 289.08787,288.56188 288.37237,287.95027 287.60237,287.29121 C 286.83237,286.63216 285.43737,285.4712 284.50237,284.71144 C 283.56737,283.95148 282.75737,283.2734 282.70237,283.20453 C 282.58603,283.05879 279.43751,280.41094 276.30237,277.82215 C 274.40839,276.25819 273.06683,275.12766 272.81927,274.88722 C 272.69997,274.77131 270.17237,272.665 267.20237,270.20675 C 264.23237,267.74849 261.22909,265.23058 260.52843,264.61176 C 259.82775,263.99274 258.95063,263.26962 258.57925,263.00455 L 257.90405,262.52267 L 256.36277,263.46541 C 254.58219,264.5545 250.06573,266.8544 248.60237,267.41716 C 248.05237,267.62857 247.37737,267.90144 247.10237,268.02317 C 246.01847,268.50324 245.73085,268.60835 243.70237,269.26621 C 238.77049,270.8658 234.27823,271.59453 229.34829,271.59453 C 225.05481,271.59453 222.03549,271.11726 218.30237,269.84879 C 207.36119,266.13107 199.81857,256.89124 197.99169,244.96793 C 197.33807,240.70187 197.65207,234.18156 198.71123,230.02661 C 199.43265,227.19678 200.90183,223.30449 202.41641,220.211 C 203.23369,218.54173 203.90237,217.08808 203.90237,216.98077 C 203.90237,216.87347 203.69987,216.65185 203.45237,216.48828 C 203.20487,216.32472 202.77737,215.97137 202.50237,215.7033 C 202.22737,215.43503 200.87737,214.27948 199.50237,213.13513 C 196.56899,210.69389 191.84603,206.68829 191.70237,206.51992 C 191.64737,206.45526 190.50051,205.48789 189.15379,204.36998 C 187.80707,203.25226 186.38159,202.04205 185.98603,201.68069 C 185.59049,201.31953 185.12541,200.94375 184.95257,200.84585 C 184.60947,200.65146 184.59801,199.24205 185.10621,219.74273 C 185.54177,237.31369 185.71611,248.57514 185.83839,267.03998 L 185.96667,286.40933 L 190.18451,286.41354 C 192.50433,286.41594 201.69237,286.59792 210.60237,286.81794 C 219.51237,287.03776 230.89737,287.30122 235.90237,287.40313 C 240.90737,287.50503 248.24237,287.68681 252.20237,287.80733 C 281.24301,288.69021 289.46009,288.8776 289.19237,288.65057 z M 317.75861,282.35528 C 317.51701,272.67962 317.59051,231.55353 317.86701,221.74473 C 318.26371,207.66967 318.84201,191.61603 319.28061,182.50553 C 319.36281,180.79883 319.37441,179.33477 319.30631,179.25228 C 319.18891,179.10994 283.69571,179.64267 283.54947,179.78902 C 283.51119,179.82726 284.22823,180.70193 285.14291,181.73256 C 290.18241,187.41103 295.60521,195.14576 298.27387,200.46147 C 302.15241,208.18699 303.11557,216.19959 300.98083,222.98017 C 299.25057,228.47606 295.27681,234.26624 289.60237,239.55953 C 288.72237,240.38055 287.95737,241.09987 287.90237,241.15813 C 287.84737,241.21639 287.39737,241.59196 286.90237,241.99256 C 286.40737,242.39316 285.77737,242.91668 285.50237,243.15592 C 285.22737,243.39496 284.79461,243.76934 284.54067,243.98775 C 283.97633,244.47324 276.56139,250.15471 275.94577,250.57353 C 275.51423,250.86703 275.58003,250.9403 278.85329,253.81437 C 280.69529,255.43159 282.51737,257.0424 282.90237,257.39395 C 284.19873,258.57733 286.99531,261.08063 287.90237,261.86942 C 288.74067,262.59835 291.02657,264.654 293.39299,266.80715 C 293.94815,267.31225 294.70939,267.98793 295.08463,268.30865 C 295.45987,268.62937 296.00245,269.11706 296.29039,269.39233 C 296.57831,269.66761 297.57629,270.5589 298.50813,271.37311 C 299.43995,272.18712 300.69737,273.31425 301.30237,273.87761 C 301.90737,274.44098 302.76237,275.20394 303.20237,275.57311 C 303.64237,275.94228 304.49737,276.71104 305.10237,277.28141 C 305.70737,277.85178 307.32737,279.30063 308.70237,280.50123 C 310.07737,281.70183 311.34661,282.82415 311.52301,282.99512 C 312.10101,283.55568 313.57391,284.88361 315.19951,286.30963 C 316.07791,287.0802 316.96191,287.91324 317.16401,288.16108 C 317.36611,288.40873 317.61771,288.61153 317.72311,288.61153 C 317.84461,288.61153 317.85761,286.32084 317.75861,282.35528 z M 234.10215,250.16613 C 236.39871,249.92388 241.10237,248.71448 241.10237,248.36593 C 241.10237,248.2344 240.81343,247.97574 239.09931,246.57214 C 238.49599,246.07824 237.95737,245.62379 237.90237,245.56253 C 237.84737,245.50107 236.99237,244.78315 236.00237,243.96693 C 235.01237,243.15052 234.15737,242.4286 234.10237,242.36233 C 233.55469,241.70287 222.40485,232.57575 222.29339,232.69567 C 221.96429,233.04963 221.08051,235.89587 220.80033,237.50408 C 220.03851,241.87725 220.92219,245.64541 223.20305,247.74991 C 224.22777,248.69546 226.74465,249.96452 227.63927,249.98695 C 227.94897,249.99455 228.38237,250.07844 228.60237,250.17313 C 229.15335,250.40997 231.81953,250.40657 234.10215,250.16613 z M 264.74639,236.34652 C 268.26343,234.35313 270.00271,233.27205 274.60891,230.217 C 282.10235,225.24663 286.43915,220.96415 287.85283,217.13893 C 288.43877,215.55335 288.76755,213.08228 288.61163,211.43583 C 288.06077,205.61942 286.14627,200.58459 278.68501,185.33015 L 276.00285,179.84648 L 266.40261,179.98421 C 248.53729,180.24047 220.85763,180.49472 210.20237,180.50033 C 198.86141,180.50614 196.02899,180.60904 196.55703,180.99542 C 196.72845,181.12095 197.35711,181.6697 197.95407,182.21484 C 199.25523,183.40323 199.95693,184.02245 201.79933,185.60863 C 202.56677,186.26929 203.33141,186.95578 203.49853,187.13436 C 203.66565,187.31274 207.06657,190.31794 211.05615,193.81243 C 218.63215,200.44806 218.40019,200.28369 219.10237,199.51272 C 219.24499,199.35617 223.51827,196.25927 223.92337,196.01903 C 224.10895,195.90892 225.73265,194.8889 227.53159,193.75257 C 232.34215,190.71373 237.56717,188.2817 242.40237,186.83105 C 243.39237,186.53416 244.47237,186.21023 244.80237,186.11134 C 245.54509,185.88891 248.42631,185.31574 249.90237,185.09672 C 250.50737,185.00683 251.54237,184.83546 252.20237,184.71574 C 252.86237,184.59602 255.65237,184.41104 258.40237,184.30493 C 269.16253,183.88932 277.67973,185.30773 279.02685,187.73936 C 279.42929,188.46589 279.34685,189.85748 278.79981,191.57219 C 278.17505,193.53035 278.17789,194.10612 278.82401,196.48009 C 279.19991,197.86127 279.32009,198.70512 279.25421,199.50051 C 279.17097,200.50531 279.08229,200.67709 278.26465,201.41803 C 276.78749,202.75676 274.22791,203.60601 268.80237,204.55736 C 267.48237,204.78879 265.99737,205.04945 265.50237,205.13654 C 265.00737,205.22363 263.38737,205.48409 261.90237,205.71532 C 260.41737,205.94675 258.93237,206.21802 258.60237,206.31872 C 258.27237,206.41922 257.59737,206.56056 257.10237,206.63304 C 255.35173,206.88889 251.77213,207.91251 248.71401,209.03163 C 246.05885,210.0034 239.76315,213.56516 236.98069,215.66966 L 236.41011,216.1013 L 236.90625,216.57557 C 237.17911,216.83643 238.07737,217.63323 238.90237,218.34594 C 239.72737,219.05885 240.44737,219.68808 240.50237,219.74413 C 240.55737,219.80039 241.32237,220.47346 242.20237,221.23983 C 243.08237,222.00639 244.30045,223.08667 244.90919,223.64063 C 246.69051,225.26125 247.70705,226.16575 249.30275,227.55013 C 250.12755,228.26585 250.84737,228.89648 250.90237,228.95153 C 251.00985,229.05944 252.08741,230.02641 254.58385,232.25523 C 259.37023,236.5283 261.22027,238.13351 261.37377,238.14652 C 261.46805,238.15453 262.98573,237.34452 264.74639,236.34652 z M 90.423334,131.85473 C 93.882014,131.58586 97.541054,131.03751 99.102374,130.55403 C 99.597374,130.40068 100.40703,130.17085 100.90159,130.04312 L 101.80083,129.81089 L 101.00159,129.1192 C 100.56203,128.73882 99.437374,127.78246 98.502374,126.99387 C 97.567374,126.20529 96.442374,125.22971 96.002374,124.82591 C 95.246154,124.13202 94.269894,123.32481 91.002374,120.69198 C 90.232374,120.07156 89.557374,119.514 89.502374,119.45274 C 89.447374,119.39148 88.592374,118.67196 87.602374,117.85374 C 86.612374,117.03533 81.682394,112.26076 76.646854,107.24354 C 69.411454,100.03434 67.451974,98.18409 67.303574,98.42153 C 66.866394,99.12063 65.279274,104.32703 64.770854,106.72983 C 64.262894,109.13043 64.219674,109.68959 64.213854,113.93703 C 64.207034,118.92641 64.407414,120.28617 65.621174,123.48677 C 66.509274,125.82871 68.473554,128.46374 70.201454,129.63111 C 71.676054,130.6273 74.417454,131.60868 76.302374,131.81529 C 78.654954,132.07295 87.303034,132.09717 90.423334,131.85473 z M 109.59683,103.83854 C 107.61127,98.12864 104.01839,91.03835 98.672574,82.28041 L 96.702114,79.05238 L 94.902254,79.12726 C 90.271734,79.32005 89.480414,79.39332 87.702374,79.79412 C 86.657374,80.02956 85.646094,80.30804 85.455094,80.41294 C 85.264094,80.51784 85.022454,80.60373 84.918114,80.60373 C 84.813774,80.60373 84.479954,80.69822 84.176274,80.81374 C 83.628954,81.02215 83.692154,81.09222 91.413254,88.83976 C 95.697274,93.13845 99.885574,97.25557 100.72059,97.9889 C 102.99127,99.98309 104.41201,101.18829 105.69511,102.20871 C 108.19269,104.1947 109.80545,105.53544 109.86905,105.67878 C 109.90571,105.76126 110.01517,105.82893 110.11231,105.82893 C 110.20943,105.82893 109.97747,104.93324 109.59683,103.83854 z M 215.20237,433.452 C 214.21237,433.3111 212.81737,433.0544 212.10237,432.8817 C 210.49175,432.4927 207.07433,431.2212 206.00237,430.6124 C 205.56237,430.3623 204.97737,430.048 204.70237,429.9139 C 203.39861,429.2777 200.14369,426.596 197.70237,424.1465 C 189.62511,416.0426 185.49747,406.3011 185.50401,395.35777 C 185.51055,384.41784 189.39647,373.87952 197.18257,363.68653 C 198.81081,361.5548 199.64935,360.60185 202.70237,357.41247 C 210.47445,349.29355 222.41917,342.24431 233.10237,339.47154 C 233.48737,339.37164 234.29737,339.15503 234.90237,338.98986 C 235.50737,338.8249 236.45237,338.63371 237.00237,338.56484 C 237.55237,338.49597 238.27237,338.35583 238.60237,338.25312 C 239.56109,337.95483 245.59085,337.46073 248.10237,337.47455 C 249.36737,337.48155 251.49363,337.59727 252.82741,337.732 L 255.25245,337.97665 L 254.26693,336.40268 C 252.66651,333.84632 252.54721,333.05093 253.76585,333.06134 C 254.88605,333.07075 258.14133,334.70979 260.20237,336.30218 C 261.50545,337.30878 264.15203,339.57044 264.69161,340.13821 C 265.07069,340.53721 265.47569,340.86533 265.59161,340.86734 C 265.89961,340.87274 268.38545,342.04471 270.00237,342.94681 C 272.25965,344.20607 274.50763,345.92018 276.10879,347.60246 C 278.62127,350.2425 278.85823,351.46572 277.18225,353.1434 L 276.27229,354.05431 L 276.80017,354.91637 C 277.09049,355.39065 277.60465,356.22908 277.94273,356.77963 C 279.13363,358.71897 281.45943,363.41466 282.45445,365.88873 C 285.16571,372.62987 286.18425,377.68111 286.18853,384.40723 C 286.19115,388.50252 285.96101,390.2839 284.99877,393.61643 C 283.04817,400.3718 279.33513,405.7433 273.10237,410.8264 C 272.16737,411.589 270.99737,412.5447 270.50237,412.9501 C 268.02963,414.9758 261.35735,419.3774 257.00237,421.8562 C 253.61253,423.7856 246.44597,427.2196 242.60237,428.7565 C 240.15775,429.7339 235.39023,431.3369 233.60237,431.7826 C 230.27457,432.612 229.50885,432.7605 226.03097,433.252 C 222.02833,433.8174 218.25721,433.8871 215.20237,433.452 z M 227.10237,412.455 C 230.67641,411.9141 237.82993,409.8779 241.20237,408.4414 C 241.64237,408.2539 242.40737,407.9626 242.90237,407.794 C 243.39737,407.6252 244.16237,407.3261 244.60237,407.1291 C 245.04237,406.9321 245.98737,406.5281 246.70237,406.2312 C 248.08289,405.6583 253.85915,402.8318 255.20237,402.0721 C 257.81147,400.5964 258.60551,400.1281 260.50237,398.94636 C 261.65737,398.22684 262.69237,397.56498 262.80237,397.47549 C 262.91237,397.386 263.76737,396.73875 264.70237,396.03705 C 267.42605,393.99341 269.03555,392.04066 270.30347,389.24166 C 273.00755,383.2719 272.58905,374.18382 269.15921,364.39284 C 268.27827,361.87813 268.74607,362.19024 264.80237,361.48613 C 263.48237,361.2505 261.59237,360.89154 260.60237,360.68834 C 257.31305,360.01366 254.73645,359.82027 250.66201,359.94239 C 248.24249,360.01486 246.27999,360.17783 245.40237,360.37883 C 244.63237,360.5552 243.50737,360.79164 242.90237,360.90435 C 241.68079,361.13158 241.50949,361.18083 238.45863,362.17743 C 235.52083,363.13718 233.02667,364.24469 230.40237,365.755 C 228.80307,366.67532 224.63949,369.38763 224.25739,369.758 C 224.11713,369.89393 223.46237,370.42567 222.80237,370.93938 C 221.35281,372.06771 219.01811,374.30214 217.33083,376.17621 C 212.82785,381.17741 209.60177,387.26088 208.58571,392.66728 C 208.14175,395.02944 208.28559,399.22564 208.87903,401.224 C 209.79289,404.3013 211.66907,407.3101 214.47471,410.1982 C 216.23443,412.0096 217.09261,412.4166 220.00237,412.8204 C 221.04079,412.9646 225.12351,412.7543 227.10237,412.455 z M 35.509414,399.13495 C 35.208754,398.57258 35.255554,397.06027 35.617334,395.64726 C 36.277394,393.06929 38.521174,389.14276 41.634054,385.11834 C 43.276714,382.99462 47.264954,378.74237 49.811814,376.39923 C 51.008614,375.29813 52.171074,374.21225 52.395094,373.98622 C 52.619094,373.7604 53.837374,372.71796 55.102374,371.67011 C 56.367374,370.62206 57.537374,369.63187 57.702374,369.46951 C 58.450314,368.73378 69.528314,360.32217 70.436574,359.80045 C 70.455394,359.78964 69.934454,359.19565 69.278934,358.48033 C 65.586474,354.45151 62.029634,349.38465 59.906794,345.12939 C 58.229854,341.76784 57.255014,338.99847 56.577074,335.67014 C 56.138914,333.5188 56.078514,332.79467 56.158714,330.65353 C 56.276514,327.50819 56.620574,326.35023 57.804914,325.113 L 58.688034,324.19048 L 61.745194,324.34883 C 65.435114,324.54023 64.737254,324.53942 68.602374,324.35644 C 71.609154,324.2141 71.871954,324.23132 72.954494,324.64153 C 74.564554,325.25174 75.871434,326.64793 77.802374,329.8205 C 79.971014,333.38346 82.899514,337.83931 84.270774,339.66253 C 86.112694,342.11118 90.345954,347.06993 90.594614,347.06993 C 90.636534,347.06993 91.465434,346.60987 92.436614,346.04771 C 93.407774,345.48535 95.237374,344.47594 96.502374,343.80447 C 97.767374,343.133 99.162374,342.38125 99.602374,342.134 C 100.79515,341.46413 110.80449,336.45933 110.95169,336.45933 C 111.06533,336.45933 112.70677,335.71739 115.60237,334.35743 C 117.97679,333.24232 129.05497,328.87496 130.60237,328.44413 C 130.93237,328.35223 132.47871,327.87476 134.03869,327.38307 C 135.59867,326.89137 137.26367,326.42451 137.73869,326.34583 C 138.21371,326.26695 138.74631,326.12701 138.92221,326.03472 C 139.27787,325.84813 143.61351,325.04273 147.00237,324.53382 C 150.63381,323.98827 155.01539,324.4107 156.93603,325.49118 C 158.44815,326.34203 158.80611,327.4171 158.37817,329.8229 C 157.99245,331.99167 157.99287,333.81249 158.37967,336.30718 C 158.94409,339.94742 158.29777,341.64792 155.70509,343.34341 C 153.85029,344.55622 152.54303,345.15262 146.89775,347.36122 C 144.75529,348.19946 142.73237,349.00767 142.40237,349.15742 C 142.07237,349.30697 140.40737,349.9366 138.70237,350.55662 C 136.99737,351.17644 135.42237,351.76122 135.20237,351.85591 C 134.98237,351.95061 134.21737,352.25411 133.50237,352.53059 C 132.78737,352.80686 129.77237,353.99865 126.80237,355.17903 C 121.86377,357.14159 120.32355,357.77142 119.20237,358.28654 C 118.98237,358.38744 118.30737,358.65831 117.70237,358.88834 C 115.18915,359.84349 107.09521,363.36141 107.14667,363.47612 C 107.17731,363.54439 109.09237,365.34819 111.40237,367.48433 C 113.71237,369.62066 117.99017,373.7616 120.90857,376.68672 C 127.15607,382.94818 128.49561,384.39522 131.02021,387.61043 C 135.35583,393.13175 137.30621,397.4835 136.17175,399.10492 C 135.85705,399.55457 135.76305,399.57158 134.22175,399.45667 C 132.50213,399.32854 131.75471,399.0865 128.10237,397.47509 C 125.82343,396.46968 114.62487,390.84466 114.16153,390.47269 C 114.02905,390.36619 113.62405,390.12254 113.26153,389.93115 C 111.53793,389.02124 103.97885,384.80603 103.80237,384.65668 C 103.69237,384.56339 102.13845,383.61344 100.34923,382.54537 C 97.418914,380.79603 90.752554,376.57161 90.502374,376.30534 C 90.384454,376.17981 89.567634,375.59983 87.471454,374.15279 C 86.629454,373.57141 85.807174,373.09593 85.644154,373.09593 C 85.481154,373.09593 80.635054,375.43607 74.875074,378.29653 C 65.978354,382.71454 63.091354,384.20023 57.343234,387.31894 C 56.980694,387.51574 56.575694,387.76098 56.443234,387.86389 C 56.310754,387.96679 55.707374,388.30733 55.102374,388.62064 C 52.643294,389.89391 40.885774,397.06047 40.502374,397.51973 C 40.344674,397.70872 38.480934,398.77859 37.630534,399.16838 C 36.603274,399.63925 35.772054,399.62624 35.509414,399.13495 z M 110.12631,278.98592 C 109.68209,278.80794 108.14543,277.61455 107.18227,276.69963 C 104.69119,274.33287 102.30369,272.24899 100.40237,270.78172 C 99.632374,270.18733 98.957374,269.65179 98.902374,269.59153 C 98.691894,269.3609 97.047974,268.11986 95.458734,266.99193 C 94.547734,266.34529 93.686194,265.71306 93.544214,265.58673 C 93.234734,265.31166 77.527434,254.97793 77.418674,254.97793 C 77.377014,254.97793 75.916314,254.01717 74.172654,252.8428 C 72.429014,251.66863 70.462374,250.3449 69.802374,249.90126 C 69.142374,249.45762 67.775854,248.48144 66.765654,247.73189 C 65.755434,246.98255 64.870934,246.36933 64.800094,246.36933 C 64.609394,246.36933 51.788694,252.04981 49.002374,253.36893 C 47.682374,253.99375 46.287374,254.63399 45.902374,254.79155 C 45.517374,254.9491 42.007374,256.66782 38.102374,258.61116 C 32.162934,261.56672 28.907834,263.33608 21.551274,267.60715 C 21.193174,267.81516 19.708174,268.78352 18.251274,269.7591 C 15.178714,271.81655 13.782114,272.59553 13.165314,272.59553 C 12.170954,272.59553 11.823634,270.9583 12.376834,268.87902 C 13.168294,265.90385 15.302974,262.34529 19.094194,257.68063 C 19.362674,257.3503 21.116854,255.5471 22.992354,253.67383 C 26.639914,250.03039 30.059114,247.08285 35.414014,242.96593 C 37.351294,241.47644 44.326134,236.57555 47.090194,234.76154 L 49.677254,233.06384 L 48.530694,231.85864 C 44.849674,227.98977 40.291074,220.97236 38.384014,216.23923 C 36.573054,211.74454 35.822494,208.18018 35.930954,204.58959 C 35.995994,202.43664 36.056074,202.11853 36.602374,201.03284 C 37.572054,199.10612 37.724394,199.04506 41.966954,198.88369 C 44.167274,198.80001 46.115554,198.61863 46.902374,198.42404 C 47.617374,198.24726 48.984274,198.05086 49.939934,197.9878 C 51.965634,197.85407 52.795754,198.14856 54.416274,199.57659 C 55.191034,200.25907 58.302374,204.62903 58.302374,205.03444 C 58.302374,205.25526 62.845354,212.06106 63.913774,213.44064 C 65.436834,215.4074 68.934274,219.52812 69.666974,220.21901 L 70.278294,220.79538 L 71.440334,220.13272 C 72.079454,219.76816 72.962374,219.27266 73.402374,219.03182 C 73.842374,218.79078 75.732374,217.75595 77.602374,216.73213 C 79.472374,215.7081 82.442374,214.11811 84.202374,213.1988 C 87.782754,211.32853 107.95835,201.23424 110.41865,200.08229 C 111.28971,199.67448 112.94737,198.89771 114.10237,198.35617 C 115.25737,197.81463 116.92237,197.03425 117.80237,196.62204 C 121.96395,194.67189 128.57149,192.00422 130.80237,191.37319 C 136.42335,189.7838 137.94493,190.29752 139.47211,194.30092 C 140.19193,196.1878 141.02373,197.53054 142.56397,199.2917 C 144.01963,200.95617 144.40283,201.75917 144.39375,203.12613 C 144.37633,205.75136 141.65463,208.71872 135.15201,213.202 C 134.24633,213.82642 133.46263,214.33733 133.41047,214.33733 C 133.35831,214.33733 132.61513,214.77437 131.75899,215.3085 C 127.92193,217.7029 124.91719,219.26325 112.96655,225.06725 C 108.72645,227.12651 88.166794,236.28005 86.947894,236.65102 C 86.541534,236.77475 87.147574,237.43961 92.672734,242.9307 C 99.068354,249.28685 101.36935,251.8412 104.69715,256.27923 C 108.56215,261.43338 110.84097,265.68783 112.20357,270.29323 C 112.84823,272.47201 113.10987,276.25058 112.70387,277.51825 C 112.22553,279.01174 111.38515,279.49022 110.12631,278.98592 z M 378.80241,271.11686 C 373.69491,270.30004 369.81591,268.36931 366.50241,264.99434 C 363.98391,262.42918 362.17411,258.97092 361.36521,255.17813 C 360.81171,252.58214 360.87551,247.50907 361.49371,244.96793 C 363.17171,238.07024 366.76581,230.85163 371.62031,224.62921 C 373.61771,222.06886 373.82421,221.84103 377.50241,218.14013 C 381.28121,214.33773 381.58721,214.06606 385.30551,211.20841 C 387.19991,209.75275 391.92481,206.52953 392.16451,206.52953 C 392.21781,206.52953 392.85671,206.16757 393.58411,205.72513 C 395.24301,204.71632 400.14751,202.32774 402.00241,201.62543 C 404.97661,200.49931 406.74961,199.95857 410.92661,198.90391 C 412.85941,198.41583 417.12541,197.8909 420.00241,197.787 C 425.20711,197.59921 429.44791,198.12133 434.65601,199.5912 C 438.42281,200.65426 442.89201,203.20962 444.80741,205.3956 C 446.61911,207.46307 446.49011,208.62102 444.16661,211.14675 C 443.36131,212.02222 442.70241,212.85105 442.70241,212.98859 C 442.70241,213.12592 442.97431,213.35896 443.30671,213.5063 C 444.17241,213.88989 446.03291,215.64884 446.60311,216.62262 C 448.22411,219.39158 448.43521,223.16996 447.18011,226.94993 C 445.78741,231.14452 442.46631,236.64362 438.72341,240.95332 C 436.17371,243.88906 432.28611,247.70367 429.02151,250.47343 C 428.37261,251.02398 427.74281,251.56733 427.62201,251.68084 C 427.50121,251.79435 426.81741,252.33269 426.10241,252.87703 C 424.60371,254.01797 424.59841,254.02198 423.80241,254.68344 C 422.76601,255.5445 416.29261,259.854 414.20241,261.07442 C 413.10241,261.71666 411.88741,262.43999 411.50241,262.68183 C 410.86431,263.08243 404.91981,266.03057 403.00241,266.89724 C 401.76071,267.4586 397.55701,268.97351 396.00241,269.42016 C 394.47081,269.86 393.94381,269.98973 391.70241,270.47742 C 390.87741,270.657 389.75241,270.90244 389.20241,271.02276 C 387.67971,271.35609 380.69401,271.41936 378.80241,271.11686 z M 389.47931,251.15211 C 392.08941,250.71367 394.63131,250.15431 396.30241,249.65041 C 398.34971,249.03339 403.12261,247.37854 403.40241,247.18895 C 403.51241,247.11428 403.96241,246.9335 404.40241,246.78715 C 404.84241,246.6406 405.69741,246.29546 406.30241,246.01998 C 406.90741,245.74451 408.07741,245.22779 408.90241,244.87164 C 411.32501,243.82559 418.07201,240.22119 421.40241,238.19357 C 423.27731,237.05202 428.15181,233.84182 428.79721,233.3237 C 429.65251,232.63681 430.74561,231.78977 431.20921,231.45443 C 432.86371,230.25764 435.87051,227.40339 437.85171,225.14873 C 439.99081,222.7145 441.05811,220.45725 440.79831,218.91751 L 440.66041,218.10069 L 440.06251,218.82682 C 438.89691,220.24223 438.83841,220.25104 431.10061,220.17717 L 424.19891,220.1113 L 420.65101,220.73512 C 416.73011,221.42441 415.49661,221.75354 412.00241,223.04183 C 409.90241,223.8162 405.26281,226.14913 403.00241,227.56735 C 393.89281,233.28266 386.03911,241.67164 383.33851,248.57153 C 382.42061,250.91668 382.39741,251.13169 383.05191,251.23079 C 384.24221,251.41117 388.22681,251.36232 389.47931,251.15211 z M 266.97175,148.2419 C 262.05021,147.54601 250.94865,142.22289 241.60237,136.07735 C 235.92943,132.34722 229.16921,127.50599 226.54101,125.29137 L 225.47965,124.39708 L 224.14101,124.95304 C 221.51413,126.04413 210.34883,131.44352 207.60237,132.95083 C 201.13407,136.50097 199.92165,136.63511 199.74259,133.82029 C 199.46981,129.53201 203.26133,123.23071 210.32111,116.23933 L 213.05023,113.53663 L 209.35261,109.73283 C 205.64101,105.91462 201.12651,100.69 198.24451,96.87739 C 193.50295,90.60452 189.80829,83.43336 189.39477,79.70023 C 189.08591,76.91184 189.95913,75.80574 193.63631,74.32746 C 195.38143,73.62596 196.64531,72.94148 198.19221,71.8608 C 200.63783,70.15189 201.48915,69.79293 203.09557,69.79293 C 205.27757,69.79293 207.64661,71.44058 211.01101,75.29843 C 212.44311,76.94047 221.18197,87.74306 222.60839,89.63455 C 222.82507,89.92184 223.71257,91.00292 224.58059,92.03695 C 225.44861,93.07099 226.48361,94.31723 226.88059,94.80632 C 228.18757,96.41693 231.11289,99.82293 231.18923,99.82293 C 231.23039,99.82293 232.37517,99.10621 233.73321,98.23014 C 239.24965,94.67178 251.35819,87.55307 256.24225,84.99692 C 257.54031,84.31764 259.45737,83.30883 260.50237,82.75528 C 272.02771,76.64998 276.49319,75.03236 278.95879,76.0696 C 279.88639,76.45979 281.06433,77.83476 282.25203,79.91384 C 282.82159,80.91064 283.89841,82.43336 284.64497,83.29742 C 287.62587,86.74727 287.90839,87.22454 287.89359,88.7863 C 287.86557,91.74326 284.98405,95.06278 278.80237,99.25917 C 275.12567,101.75526 267.08261,106.11001 261.10237,108.84274 C 259.72737,109.47117 257.70237,110.40911 256.60237,110.92722 C 255.50237,111.44554 252.57737,112.72742 250.10237,113.77627 C 247.62737,114.82492 245.53169,115.74824 245.44533,115.82792 C 245.35895,115.9078 246.16895,116.92141 247.24533,118.08037 C 248.32169,119.23933 250.81697,121.92061 252.79037,124.03832 C 259.44453,131.17966 264.11063,136.45953 266.51007,139.56263 C 267.10607,140.3334 267.64659,141.00908 267.71123,141.06413 C 268.00721,141.31618 269.11503,143.09616 269.76707,144.36743 C 270.75269,146.28875 270.86863,147.06352 270.26893,147.72058 C 269.70935,148.3336 268.72373,148.48955 266.97175,148.2419 z "
       id="path2221" />
  </g>
</svg>
